<svg width="244" height="245" viewBox="0 0 244 245" fill="none" xmlns="http://www.w3.org/2000/svg">
<circle cx="122" cy="122.115" r="122" fill="black"/>
<path d="M156.734 76.142H158.703C162.125 76.142 163.836 77.1029 163.836 79.0248C163.836 80.056 162.43 85.3763 159.617 94.9857C152.023 120.954 144.242 143.619 136.273 162.978C133.789 169.072 131.937 172.704 130.719 173.876C129.5 175.048 127.086 175.634 123.477 175.634C119.914 175.634 117.336 175.306 115.742 174.65C114.195 173.994 112.93 172.564 111.945 170.361C110.961 168.158 108.031 159.884 103.156 145.54C98.2812 131.15 93.1484 117.322 87.7578 104.056C82.3672 90.7435 79.6719 82.9154 79.6719 80.5717C79.6719 78.5092 82.1094 77.4779 86.9844 77.4779C89.9844 77.4779 92.4687 78.017 94.4375 79.0951C96.4062 80.1732 98.5156 83.0092 100.766 87.6029C103.578 93.2748 107.937 105.603 113.844 124.587C119.797 143.525 122.867 152.994 123.055 152.994C123.289 152.994 125.68 146.244 130.227 132.744C134.82 119.244 138.406 108.064 140.984 99.2045C143.609 90.3451 145.484 84.6732 146.609 82.1888C148.484 78.1576 151.859 76.142 156.734 76.142Z" fill="white"/>
</svg>
