<svg width="74" height="60" viewBox="0 0 74 60" fill="none" xmlns="http://www.w3.org/2000/svg">
<path d="M2.19575 5.27004C12.2147 14.482 29.7949 30.6887 34.9619 35.7419C35.6555 36.424 36.3995 36.7707 37.1719 36.7707C37.9426 36.7707 38.6853 36.4272 39.3774 35.7484C44.5489 30.6902 62.129 14.482 72.1481 5.27004C72.7719 4.69761 72.867 3.69145 72.362 2.99162C71.1946 1.37448 69.454 0.447266 67.5885 0.447266H6.75525C4.8899 0.447266 3.14917 1.37448 1.98188 2.99178C1.47687 3.69145 1.57197 4.69761 2.19575 5.27004Z" fill="black"/>
<path d="M72.7898 10.2621C72.2507 9.98971 71.6165 10.0848 71.1679 10.5008C64.6063 16.5394 55.9611 24.5178 49.4412 30.6063C49.0981 30.9256 48.9051 31.3948 48.9125 31.8866C48.9199 32.3768 49.1293 32.8395 49.4828 33.1459C55.5409 38.4137 64.6704 45.6601 71.263 50.8102C71.5259 51.0166 71.8378 51.1214 72.1512 51.1214C72.3888 51.1214 72.6264 51.0618 72.8448 50.9392C73.3528 50.657 73.672 50.0893 73.672 49.4702V11.7601C73.6719 11.1168 73.3273 10.5315 72.7898 10.2621Z" fill="black"/>
<path d="M3.08087 50.8102C9.67511 45.6601 18.8061 38.4138 24.8627 33.1459C25.2161 32.8395 25.4256 32.3767 25.433 31.8866C25.4404 31.3948 25.2474 30.9257 24.9043 30.6063C18.3842 24.5178 9.73742 16.5394 3.17597 10.5009C2.72443 10.0848 2.08882 9.99298 1.55415 10.2622C1.01649 10.5315 0.671875 11.1168 0.671875 11.7601V49.4703C0.671875 50.0895 0.99125 50.6571 1.49911 50.9393C1.7174 51.0619 1.95508 51.1215 2.19276 51.1215C2.50614 51.1215 2.81796 51.0167 3.08087 50.8102Z" fill="black"/>
<path d="M71.808 55.3025C65.441 50.3572 53.7124 41.1373 46.7112 34.968C46.1409 34.4633 45.3151 34.4794 44.7538 35.0051C43.38 36.3063 42.2304 37.4029 41.415 38.1993C38.9109 40.6534 35.4356 40.6534 32.9256 38.196C32.1132 37.4012 30.9637 36.3014 29.5899 35.005C29.033 34.476 28.2057 34.4599 27.6338 34.9678C20.6563 41.1161 8.91446 50.3472 2.53709 55.3024C2.18207 55.5798 1.95337 56.007 1.90889 56.4794C1.86583 56.9519 2.00983 57.421 2.30839 57.7693C3.45957 59.1159 5.08139 59.8883 6.75526 59.8883H67.5886C69.2625 59.8883 70.8828 59.1159 72.0368 57.7695C72.3338 57.4228 72.4794 56.9536 72.4363 56.4811C72.3917 56.0089 72.163 55.5799 71.808 55.3025Z" fill="black"/>
</svg>
