<svg width="74" height="60" viewBox="0 0 74 60" fill="none" xmlns="http://www.w3.org/2000/svg">
<path d="M49.5357 0.46046V0.447266H52.9658L54.2191 0.69796C55.0547 0.860714 55.8133 1.074 56.4949 1.33789C57.1766 1.60178 57.8362 1.90967 58.4738 2.2615C59.1115 2.61333 59.6898 2.97183 60.2087 3.33685C60.7233 3.69752 61.185 4.08016 61.594 4.48477C61.9985 4.8938 62.6296 4.99936 63.4871 4.80144C64.3446 4.60352 65.2681 4.32861 66.2576 3.97678C67.247 3.62495 68.2256 3.22912 69.193 2.78928C70.1605 2.34945 70.7498 2.07018 70.9609 1.95143C71.1676 1.82833 71.2775 1.76236 71.2907 1.75352L71.3038 1.73373L71.5677 1.60178L71.5809 1.58199L71.6007 1.56879L71.6205 1.5556L71.6337 1.53581L71.6996 1.51602L71.7656 1.50282L71.7525 1.60178L71.7326 1.70074L71.6666 1.89866L71.6007 2.0306L71.5677 2.12956C71.5457 2.19553 71.5238 2.28347 71.5017 2.39345C71.4798 2.50342 71.2709 2.9432 70.8751 3.7129C70.4793 4.48259 69.9846 5.26324 69.3909 6.05491C68.7972 6.84658 68.2651 7.44469 67.7946 7.84936C67.3197 8.25839 67.0052 8.54425 66.8513 8.707C66.6974 8.87411 66.5105 9.02802 66.2906 9.16881L65.9607 9.38651L65.8288 9.45249L65.8157 9.47228L65.7958 9.48547L65.776 9.49867L65.7629 9.51846L65.6309 9.58443L65.6178 9.60422L65.5979 9.61742L65.5782 9.63061L65.565 9.6504L65.5518 9.6702L65.532 9.68339L65.5122 9.69658L65.499 9.71638H65.8288L67.6758 9.32054C68.9072 9.05665 70.0835 8.73781 71.2049 8.36394L73.2828 7.67123L73.5466 7.53929L73.6786 7.5195L73.8105 7.5063V7.63825L73.7775 7.65144L73.7445 7.67123L73.7314 7.69103L73.7115 7.70422L73.6917 7.71741L73.6786 7.73721L73.6654 7.757L73.6456 7.77019L73.6258 7.78339L73.6126 7.80318L73.5995 7.82297L73.5796 7.83616L73.5136 7.96811L73.4939 7.9813C73.4851 7.9945 73.2059 8.3683 72.6561 9.10283C72.1064 9.84172 71.8096 10.2155 71.7656 10.2244C71.7217 10.2376 71.66 10.3035 71.5809 10.4223C71.5062 10.5454 71.04 11.0358 70.1824 11.8935C69.3249 12.7511 68.4851 13.5141 67.6627 14.1827C66.836 14.8556 66.4181 15.6825 66.4094 16.6633C66.3962 17.6397 66.3456 18.7436 66.2576 19.9751C66.1697 21.2066 66.0047 22.537 65.7629 23.9664C65.521 25.3958 65.1472 27.0121 64.6415 28.8154C64.1358 30.6186 63.5201 32.3779 62.7945 34.0931C62.0689 35.8084 61.3103 37.3478 60.5187 38.7112C59.7271 40.0747 59.0015 41.2292 58.3419 42.1748C57.6822 43.1203 57.0116 44.011 56.33 44.8466C55.6484 45.6823 54.7865 46.6235 53.7442 47.6702C52.6976 48.7126 52.1259 49.2844 52.0292 49.3855C51.928 49.4823 51.4971 49.843 50.7362 50.4675C49.9799 51.0964 49.1663 51.7253 48.2955 52.3543C47.4292 52.9788 46.6332 53.5 45.9076 53.9178C45.182 54.3356 44.3069 54.8128 43.2823 55.3494C42.2621 55.8904 41.1582 56.3918 39.9708 56.8536C38.7835 57.3154 37.5302 57.7442 36.2109 58.1401C34.8916 58.5359 33.6163 58.8438 32.385 59.0637C31.1537 59.2836 29.7574 59.4705 28.1962 59.6244L25.8545 59.8553V59.8883H21.5668V59.8553L21.0061 59.8223C20.6324 59.8004 20.3245 59.7783 20.0826 59.7564C19.8408 59.7344 18.9283 59.6134 17.3451 59.3935C15.762 59.1736 14.5197 58.9537 13.6182 58.7338C12.7167 58.5139 11.3754 58.0961 9.59434 57.4803C7.8133 56.8646 6.28953 56.2422 5.02302 55.6133C3.76093 54.9888 2.96936 54.5929 2.64831 54.4258C2.33168 54.2631 1.97547 54.0608 1.57969 53.8189L0.98601 53.456L0.972883 53.4362L0.953028 53.423L0.933239 53.4098L0.920046 53.39L0.788117 53.3241L0.77499 53.3043L0.755135 53.2911L0.735346 53.2779L0.722153 53.2581L0.709026 53.2383L0.689171 53.2251H0.656189V53.0932L0.722153 53.1064L0.788117 53.1262L1.08496 53.1591C1.28285 53.1811 1.82158 53.2141 2.70108 53.2581C3.58065 53.3021 4.51509 53.3021 5.50456 53.2581C6.49402 53.2141 7.50552 53.1151 8.53891 52.9612C9.57237 52.8073 10.7927 52.5434 12.1999 52.1696C13.6072 51.7957 14.9001 51.3515 16.0787 50.8369C17.2528 50.318 18.0883 49.9309 18.5853 49.6758C19.0778 49.4251 19.8298 48.9589 20.8412 48.2772L22.3584 47.2546L22.3716 47.2348L22.3914 47.2216L22.4112 47.2084L22.4244 47.1887L22.4376 47.1689L22.4574 47.1557L22.4772 47.1425L22.4903 47.1227L22.5563 47.1029L22.6223 47.0897L22.6355 47.0237L22.6552 46.9577L22.6751 46.9446L22.6882 46.9248L22.1605 46.8918C21.8087 46.8698 21.4679 46.8478 21.1381 46.8258C20.8083 46.8038 20.2916 46.7049 19.5879 46.5289C18.8843 46.353 18.1258 46.0891 17.3121 45.7373C16.4986 45.3854 15.707 44.9676 14.9374 44.4838C14.1679 44 13.6116 43.5975 13.2685 43.2765C12.9299 42.9598 12.4902 42.5112 11.9493 41.9307C11.4128 41.3457 10.9466 40.7453 10.5508 40.1296C10.155 39.5139 9.77686 38.8035 9.4163 37.9987L8.86873 36.798L8.80277 36.6001L8.78298 36.5341L8.76978 36.4682L8.86873 36.4813L8.96768 36.5011L9.69328 36.6001C10.1771 36.6661 10.9357 36.688 11.969 36.6661C13.0025 36.6441 13.7171 36.6001 14.1129 36.5341C14.5087 36.4682 14.7506 36.4241 14.8385 36.4022L14.9704 36.3692L15.3002 36.3032L15.3134 36.2834L15.3332 36.2702L15.3531 36.257L15.3662 36.2372L14.7066 36.0723C14.6186 36.0503 14.4647 36.0063 14.2448 35.9404C14.025 35.8744 13.4313 35.6325 12.4638 35.2147C11.4963 34.7969 10.7267 34.39 10.155 33.9942C9.5819 33.5972 9.03543 33.1631 8.51912 32.6945C8.0046 32.2195 7.43955 31.6082 6.82384 30.8605C6.2082 30.1128 5.65852 29.2442 5.17474 28.2546C4.69102 27.265 4.32822 26.3194 4.08633 25.4178C3.84541 24.5214 3.68646 23.6051 3.61145 22.6799L3.49265 21.2945L3.55861 21.3077L3.62458 21.3275L3.88843 21.4594L4.91088 21.9213C5.59255 22.2291 6.43907 22.493 7.4505 22.7129C8.462 22.9328 9.06662 23.0538 9.26452 23.0758L9.56136 23.1088H10.155L10.1419 23.089L10.1221 23.0758L10.1023 23.0626L10.0891 23.0428L10.0759 23.023L10.0561 23.0098L10.0363 22.9966L10.0231 22.9768L9.89118 22.9108L9.87805 22.891L9.85819 22.8779L9.8384 22.8647L9.82521 22.8449L9.69328 22.7789L9.68016 22.7591C9.66696 22.7503 9.47785 22.6095 9.1128 22.3369C8.75217 22.0598 8.374 21.7014 7.97821 21.2615C7.58243 20.8217 7.18664 20.3599 6.79086 19.8761C6.39435 19.3912 6.04118 18.8725 5.73543 18.3258C5.42764 17.776 5.10218 17.0766 4.75916 16.2278C4.42057 15.3834 4.16331 14.5324 3.98738 13.6747C3.81152 12.8171 3.71257 11.9705 3.69054 11.1348C3.66858 10.2991 3.69054 9.58443 3.75651 8.99068C3.82247 8.39693 3.9544 7.72619 4.15229 6.97852C4.35018 6.23086 4.63607 5.43919 5.00983 4.60352L5.57052 3.35005L5.63649 3.15213L5.65634 3.13894L5.66947 3.11914L5.68266 3.09935L5.70245 3.08616L5.72231 3.09935L5.73543 3.11914L5.74862 3.13894L5.76841 3.15213L5.78827 3.16533L5.8014 3.18512L5.81459 3.20491L5.83438 3.2181L5.90034 3.35005L5.9202 3.36324L5.93332 3.38303L6.82384 4.37262C7.41752 5.03234 8.12116 5.76905 8.9347 6.58269C9.7483 7.39633 10.199 7.81855 10.287 7.84936C10.375 7.88452 10.4849 7.98566 10.6168 8.15283C10.7487 8.31559 11.1885 8.70482 11.9361 9.32054C12.6837 9.93626 13.6622 10.651 14.8715 11.4646C16.0809 12.2783 17.4221 13.081 18.8953 13.8726C20.3685 14.6643 21.9517 15.379 23.6447 16.0167C25.3378 16.6545 26.5252 17.0723 27.2068 17.2702C27.8885 17.4681 29.0538 17.721 30.7029 18.0289C32.352 18.3368 33.5944 18.5347 34.4299 18.6226C35.2654 18.7106 35.8371 18.7612 36.1449 18.7744L36.6067 18.7876L36.5936 18.6886L36.5737 18.5897L36.4418 17.765C36.3538 17.2153 36.3098 16.4456 36.3098 15.456C36.3098 14.4664 36.3868 13.5538 36.5407 12.7181C36.6947 11.8824 36.9255 11.0358 37.2333 10.1782C37.5412 9.32054 37.8424 8.63219 38.137 8.11325C38.4361 7.59866 38.8275 7.01151 39.3112 6.35179C39.795 5.69206 40.4216 5.01037 41.1912 4.30665C41.9608 3.60292 42.8403 2.97618 43.8298 2.42643C44.8192 1.87669 45.7318 1.45882 46.5673 1.17296C47.4028 0.887103 48.1065 0.700137 48.6781 0.612196C49.2498 0.524255 49.5357 0.473655 49.5357 0.46046Z" fill="black"/>
</svg>
